<svg xmlns="http://www.w3.org/2000/svg" xmlns:xlink="http://www.w3.org/1999/xlink" version="1.1" id="Layer_1" x="0px" y="0px" width="100px" height="100px" viewBox="0 0 100 100" enable-background="new 0 0 100 100" xml:space="preserve">
<rect fill="none" width="100" height="100"/>
<path d="M89.124,36.821c0.586,0.351,1.258,0.562,1.99,0.562c2.141,0,3.886-1.74,3.886-3.886c0-2.141-1.745-3.886-3.886-3.886  s-3.886,1.745-3.886,3.886c0,0.477,0.095,0.923,0.251,1.344c-1.896,1.77-6.85,6.809-8.374,12.404c-0.32-0.025-0.642-0.07-0.973-0.07  c-1.845,0-3.64,0.391-5.335,1.158c-1.103,0.506-2.125,1.178-3.048,1.985c-2.818-2.778-6.613-4.392-10.649-4.392  c-0.838,0-1.66,0.075-2.462,0.21l-7.363-24.759c-0.602-1.805-1.55-3.444-2.823-4.878c-2.67-3.014-6.511-4.738-10.538-4.738  c-3.443,0-6.76,1.259-9.341,3.545c-2.814,2.497-4.489,5.937-4.716,9.692c-0.226,3.75,1.024,7.365,3.519,10.178  c1.266,1.434,2.782,2.577,4.546,3.415l21.63,9.376c-2.663,1.534-4.829,3.866-6.169,6.724c-5.901-1.976-13.098-1.845-19.752,0.542  C14.95,59.058,9.317,66.739,7.606,72.646c-0.703,2.427-0.807,4.713-0.367,6.729l-2.162,5.852c-0.003,0.005-0.003,0.01-0.003,0.015  c-0.029,0.08-0.027,0.171-0.04,0.256c-0.011,0.085-0.036,0.171-0.031,0.251c0,0.01-0.002,0.015-0.002,0.02  c0.006,0.08,0.04,0.146,0.06,0.221c0.02,0.08,0.028,0.16,0.063,0.235c0.05,0.105,0.125,0.191,0.202,0.276  c0.03,0.035,0.047,0.08,0.082,0.11c0.12,0.11,0.262,0.2,0.417,0.256c0.003,0.005,0.006,0.005,0.011,0.01  c0.14,0.05,0.283,0.075,0.423,0.075c0.008,0,0.013,0.005,0.02,0.005c0,0,0,0,0.001,0l0,0l0,0c0.033,0,0.064,0,0.095-0.005  l6.587-0.491c2.258,1.173,5.024,1.779,8.305,1.779c4.269,0,9.347-1.002,15.156-2.998c7.734-2.888,13.254-6.313,16.486-10.208  c1.945,0.872,4.046,1.344,6.192,1.344c4.438,0,8.543-1.95,11.392-5.229c3.269,3.39,7.776,6.357,11.953,6.357  c1.178,0,2.286-0.23,3.289-0.692c3.209-1.453,5.26-5.134,5.776-10.354c0.405-4.142-0.216-8.624-1.615-11.712  c-1.594-3.5-4.652-6.052-8.248-7.07C83.021,42.978,87.349,38.5,89.124,36.821z M27.298,33.477c-2.04-2.301-3.063-5.26-2.877-8.328  c0.184-3.068,1.554-5.881,3.856-7.922c2.109-1.87,4.822-2.898,7.637-2.898c3.293,0,6.434,1.409,8.618,3.875  c1.039,1.168,1.816,2.512,2.296,3.946l7.158,24.072l-23.003-9.968C29.575,35.583,28.335,34.65,27.298,33.477z M47.508,73.242  l-5.247-14.109c0.89,0.226,1.758,0.486,2.572,0.817l1.172,3.023l3.264,8.413C48.784,72.009,48.177,72.631,47.508,73.242z   M39.623,78.321l-7.067-19.564c1.323-0.206,2.646-0.331,3.964-0.331l6.683,17.97C42.105,77.058,40.918,77.699,39.623,78.321z   M19.41,64.498l6.48,18.16c-1.463,0.235-2.847,0.386-4.106,0.416l-5.386-15.658C17.267,66.413,18.253,65.431,19.41,64.498z   M13.023,80.001c-1.021-1.309-1.198-3.47-0.486-5.927c0.094-0.326,0.243-0.672,0.373-1.013l3.148,9.155  C14.792,81.7,13.764,80.979,13.023,80.001z M8.956,83.135c0.266,0.351,0.558,0.672,0.857,0.982l-1.638,0.125l0.542-1.464  C8.799,82.898,8.868,83.024,8.956,83.135z M30.952,81.57l-7.116-19.945c1.1-0.572,2.258-1.104,3.527-1.56  c0.062-0.025,0.124-0.035,0.186-0.061l7.342,20.322c-0.069,0.029-0.132,0.055-0.201,0.08C33.412,80.849,32.163,81.234,30.952,81.57z   M59.101,71.241c-1.705,0-3.375-0.436-4.869-1.264l-4.663-12.013c1.364-4.102,5.179-6.904,9.532-6.904  c3.169,0,6.122,1.484,8.032,4.006l0.576,11.246C65.879,69.366,62.64,71.241,59.101,71.241z M85.223,56.872  c1.018,2.241,1.489,5.891,1.179,9.085c-0.321,3.224-1.359,5.535-2.788,6.182c-0.341,0.156-0.722,0.231-1.168,0.231  c-2.673,0-6.779-2.718-9.606-6.288l-0.567-11.051c0.747-0.882,1.635-1.56,2.652-2.025c1.023-0.461,2.102-0.697,3.209-0.697  C81.182,52.309,83.959,54.099,85.223,56.872z M91.114,32.178c0.727,0,1.318,0.591,1.318,1.318s-0.592,1.319-1.318,1.319  c-0.728,0-1.318-0.592-1.318-1.319S90.387,32.178,91.114,32.178z M75.656,56.27c-0.727,0.973-0.857,2.307-0.356,3.66  c0.437,1.184,1.319,2.312,2.482,3.174c1.273,0.948,2.718,1.47,4.076,1.47c1.313,0,2.407-0.502,3.084-1.409  c1.408-1.9,0.476-4.903-2.126-6.834C80.304,54.465,77.025,54.425,75.656,56.27z M77.717,57.799c0.236-0.32,0.742-0.371,1.023-0.371  c0.797,0,1.725,0.352,2.547,0.963c1.449,1.078,2.046,2.628,1.594,3.244c-0.24,0.321-0.747,0.371-1.022,0.371  c-0.797,0-1.725-0.351-2.547-0.963c-0.757-0.562-1.339-1.293-1.604-2C77.517,58.517,77.517,58.064,77.717,57.799z"/>
</svg>