<svg xmlns="http://www.w3.org/2000/svg" xmlns:xlink="http://www.w3.org/1999/xlink" version="1.1" id="Layer_1" x="0px" y="0px" width="100px" height="100px" viewBox="0 0 50 50" enable-background="new 0 0 50 50" xml:space="preserve">
<g>
	<path fill="#000000" d="M30.149,41.323c1.205-1.917,0.627-4.446-1.291-5.652c-0.863-0.545-1.854-0.721-2.791-0.579   c0.432,0.1,0.855,0.27,1.253,0.519c1.917,1.205,2.494,3.733,1.292,5.65c-0.661,1.051-1.721,1.698-2.86,1.87   C27.408,43.517,29.194,42.84,30.149,41.323z"/>
	<path fill="#000000" d="M34.524,42.675c1.95-3.105,1.014-7.201-2.092-9.154c-1.399-0.884-3.005-1.168-4.521-0.938   c0.699,0.161,1.387,0.437,2.03,0.841c3.104,1.949,4.04,6.048,2.092,9.15c-1.072,1.703-2.788,2.75-4.634,3.029   C30.083,46.228,32.978,45.131,34.524,42.675z"/>
	<path fill="#000000" d="M39.384,44.685c2.723-4.334,1.416-10.049-2.919-12.777c-1.953-1.231-4.193-1.627-6.312-1.308   c0.977,0.226,1.936,0.609,2.835,1.173c4.331,2.721,5.638,8.44,2.919,12.771c-1.497,2.378-3.891,3.839-6.468,4.231   C33.185,49.643,37.226,48.113,39.384,44.685z"/>
	<path fill="#000000" d="M23.109,16.136C23.081,6.652,15.694,2.665,9.195,0.986v47.452c0.275-0.013,1.421-0.064,6.181-0.281   c8.942-1.989,9.413-8.273,9.413-8.273l-2.423-1.139c0,0,2.095-1.749,2.423-2.568c0.235-0.599,0-2.563,0-2.563   s2.277-0.547,2.556-1.516c0.613-2.104-4.126-6.83-3.841-11.701C23.503,18.94,23.358,17.523,23.109,16.136z"/>
</g>
</svg>