<svg xmlns="http://www.w3.org/2000/svg" xmlns:xlink="http://www.w3.org/1999/xlink" version="1.1" id="Layer_1" x="0px" y="0px" viewBox="0 0 100 100" enable-background="new 0 0 100 100" xml:space="preserve" height="100px" width="100px">
<path d="M26.792,49.784v14.233h21V49.784H26.792z M46.792,50.784v8.567h-9v-8.567H46.792z M27.792,50.784h9v8.567h-9V50.784z   M27.792,63.017v-2.667h9v2.667H27.792z M46.792,63.017h-9v-2.667h9V63.017z"/>
<path d="M26.792,21.784v14.233h21V21.784H26.792z M46.792,22.784v8.567h-9v-8.567H46.792z M27.792,22.784h9v8.567h-9V22.784z   M27.792,35.017v-2.667h9v2.667H27.792z M46.792,35.017h-9v-2.667h9V35.017z"/>
<path d="M26.792,76.784v14.233h21V76.784H26.792z M46.792,77.784v8.567h-9v-8.567H46.792z M27.792,77.784h9v8.567h-9V77.784z   M27.792,90.017v-2.667h9v2.667H27.792z M46.792,90.017h-9v-2.667h9V90.017z"/>
<path d="M61.083,46.932v12.041H70.5V46.932H61.083z M62.083,47.932H69.5v6.982h-7.417V47.932z M69.5,57.973h-7.417v-2.059H69.5  V57.973z"/>
<path d="M61.083,19.57v12.041H70.5V19.57H61.083z M62.083,20.57H69.5v6.982h-7.417V20.57z M69.5,30.611h-7.417v-2.059H69.5V30.611z"/>
<path d="M61.083,72.459V84.5H70.5V72.459H61.083z M62.083,73.459H69.5v6.982h-7.417V73.459z M69.5,83.5h-7.417v-2.059H69.5V83.5z"/>
<circle cx="73.479" cy="81.104" r="1.521"/>
<path d="M79.56,14.285L54.015,1.553c-0.141-0.07-0.306-0.07-0.446,0l-8.754,4.363l1.019,0.609l7.959-3.967l23.421,11.673H58.72  L37.548,1.571c-0.158-0.095-0.355-0.095-0.514,0L14.989,14.754c-0.193,0.116-0.285,0.346-0.225,0.563s0.257,0.367,0.482,0.367h3.295  v24.5h-1.25v4.33h1.25v22.67h-1.25v4.33h1.25v24.087h37.5v-3.184h14.787c-0.023,0.108-0.037,0.173-0.037,0.173  c-0.004,0.017-0.567,4.6-0.567,4.6c-0.09,0.541,0.009,1.032,0.401,1.098c0.393,0.065,0.606-0.295,0.696-0.837l0.784-4.304  c0-0.001,0-0.001,0-0.001c0.014-0.031,0.106-0.354,0.211-0.729h0.491l0.103,0.904c0.003,0.048,0.063,0.42,0.122,0.562l1.56,3.321  c0.212,0.508,0.508,0.767,0.884,0.585c0.377-0.182,0.343-0.514,0.131-1.022c0,0-1.206-3.552-1.207-3.561l-0.034-0.788h3.233V69.147  h0.671v-4.216h-0.671V43.073h0.671v-4.216h-0.671V15.232h1.735c0.232,0,0.434-0.16,0.487-0.385  C79.877,14.621,79.768,14.388,79.56,14.285z M59.337,15.684c0.155,0,0.277-0.087,0.37-0.202h16.394v23.375h-20.06V15.684H59.337z   M17.056,14.684L37.292,2.583l20.235,12.101H17.056z M54.542,15.934v24.25h-34.5v-24.25H54.542z M18.292,43.514v-2.33h38v2.33  H18.292z M57.292,44.514v-1.44h18.81v21.858h-20.06V44.514H57.292z M54.542,44.514v22.67h-34.5v-22.67H54.542z M54.542,94.101h-34.5  V71.514h34.5V94.101z M18.292,70.514v-2.33h38v2.33H18.292z M76.102,90.917h-1.797l-0.082-1.913l0.199-2.28  c0,0,0.175,0.399,0.205,0.448c0,0.006-0.001,0.012-0.001,0.018l0.281,2.343c0.018,0.41,0.052,0.915,0.367,0.916  c0.314,0,0.324-0.318,0.305-0.728l0.11-2.684c-0.005-0.114-0.083-0.383-0.096-0.417l-1.043-2.727  c-0.002-0.005-0.005-0.006-0.007-0.01c-0.172-0.472-0.601-0.828-1.134-0.875c-0.734-0.064-1.38,0.479-1.444,1.212l-0.243,2.78  l-0.784,0.658c-0.334,0.229-0.872,0.668-0.675,0.956c0.197,0.287,0.559-0.086,0.894-0.315l0.471-0.225L71.546,89  c-0.003,0.032-0.206,0.995-0.4,1.917H56.042V71.514h1.25v-2.366h18.81V90.917z M77.273,68.147H57.292v-0.964h-1.25v-1.252h21.231  V68.147z M77.273,42.073H57.292v-1.89h-1.25v-0.326h21.231V42.073z"/>
</svg>