<svg xmlns="http://www.w3.org/2000/svg" xmlns:xlink="http://www.w3.org/1999/xlink" version="1.1" id="Layer_1" x="0px" y="0px" width="100px" height="100px" viewBox="0 0 100 100" enable-background="new 0 0 100 100" xml:space="preserve">
<path d="M76.405,33.502c0,7.217-5.85,13.066-13.065,13.066c-7.217,0-13.067-5.85-13.067-13.066c0-7.216,13.067-30.913,13.067-30.913  S76.405,26.287,76.405,33.502z"/>
<path d="M49.657,57.637c0,7.218-5.85,13.067-13.066,13.067c-7.217,0-13.067-5.85-13.067-13.067c0-7.215,13.067-30.912,13.067-30.912  S49.657,50.421,49.657,57.637z"/>
<path d="M76.405,84.011c0,7.217-5.85,13.067-13.065,13.067c-7.217,0-13.067-5.851-13.067-13.067  c0-7.216,13.067-30.913,13.067-30.913S76.405,76.795,76.405,84.011z"/>
</svg>