<svg xmlns="http://www.w3.org/2000/svg" xmlns:xlink="http://www.w3.org/1999/xlink" version="1.1" id="Layer_1" x="0px" y="0px" width="100px" height="100.08px" viewBox="0 0 100 100.08" enable-background="new 0 0 100 100.08" xml:space="preserve">
<path d="M25.031,74.703C16.997,68.317,9.14,60.465,5.161,51.975l0.402-0.004h2.1c0.497,0,0.943-0.28,1.156-0.729l0.271-0.568  l2.431-5.156l2.072,5.156l1.77,4.389c0.209,0.525,0.736,0.842,1.302,0.787c0.56-0.056,1.017-0.476,1.12-1.029l0.768-4.146  l3.78-20.43l1.242,20.43L25.031,74.703z"/>
<path d="M94.629,51.938C84.612,73.361,49.886,90.734,49.886,90.734s-10.59-5.299-21.762-13.646l7.09-24.26l0.771,1.915  c0.189,0.474,0.646,0.785,1.16,0.79c0.516,0.01,0.977-0.299,1.18-0.768l1.761-4.092l2.108-4.899l2.891,4.899l0.379,0.642  c0.23,0.388,0.646,0.622,1.094,0.622H94.629L94.629,51.938z"/>
<path d="M98.169,37.795c0,4.133-0.88,8.062-2.47,11.61H47.28l-4.172-7.072c-0.239-0.411-0.695-0.649-1.17-0.618  c-0.479,0.026-0.895,0.325-1.084,0.762l-3.526,8.197l-0.131,0.303l-0.122-0.303l-0.881-2.178c-0.202-0.501-0.694-0.822-1.236-0.794  c-0.538,0.032-1.002,0.394-1.15,0.913l-0.602,2.059l-5.87,20.086l-1.224-20.084L24.238,19.77c-0.041-0.643-0.552-1.152-1.188-1.188  c-0.641-0.041-1.205,0.402-1.322,1.034l-5.641,30.459l-3.296-8.196c-0.19-0.465-0.638-0.776-1.144-0.795  c-0.5-0.014-0.965,0.271-1.183,0.728l-3.599,7.636H5.588l-1.364-0.011c-0.066-0.107-0.148-0.211-0.233-0.307  c-0.308-0.854-0.569-1.712-0.786-2.574c-0.895-2.758-1.373-5.698-1.373-8.761c0-15.71,12.73-28.448,28.439-28.448  c7.664,0,14.613,3.029,19.729,7.957c5.116-4.928,12.065-7.957,19.729-7.957C85.438,9.346,98.169,22.085,98.169,37.795z"/>
</svg>