<svg xmlns="http://www.w3.org/2000/svg" xmlns:xlink="http://www.w3.org/1999/xlink" version="1.1" id="Layer_1" x="0px" y="0px" width="100px" height="100px" viewBox="0 0 100 100" enable-background="new 0 0 100 100" xml:space="preserve">
<rect fill="none" width="100" height="100"/>
<path d="M14.096,72.61h42.461c0.745,0,1.345,0.605,1.345,1.345c0,0.744-0.6,1.345-1.345,1.345H14.096  c-0.74,0-1.345-0.601-1.345-1.345C12.751,73.216,13.356,72.61,14.096,72.61z M14.096,68.096h26.013c0.747,0,1.347-0.6,1.347-1.345  c0-0.744-0.6-1.349-1.347-1.349H14.096c-0.74,0-1.345,0.604-1.345,1.349C12.751,67.496,13.356,68.096,14.096,68.096z M65.654,50.967  V80.16c0,0.677-0.55,1.229-1.229,1.229H6.229C5.55,81.39,5,80.837,5,80.16V36.41c0-0.677,0.55-1.229,1.229-1.229h58.195  c0.68,0,1.229,0.552,1.229,1.229v6.944l23.71-23.71c0.698-0.701,1.681-0.894,2.569-0.658c0.53-0.504,1.364-0.504,1.885,0.015  c0.519,0.523,0.519,1.359,0.01,1.882c0.23,0.889,0.036,1.868-0.658,2.564L65.654,50.967z M63.195,53.424L50.463,66.156  c-0.526,0.528-1.215,0.792-1.904,0.792c-0.218,0-0.442-0.077-0.655-0.135l-0.889,0.889c-0.264,0.265-0.605,0.394-0.953,0.394  c-0.341,0-0.689-0.129-0.954-0.394c-0.526-0.528-0.526-1.378,0-1.901L46,64.912c-0.23-0.889-0.036-1.868,0.658-2.56l16.538-16.539  V37.64H7.459v41.291h55.736V53.424z M94.606,26.003c-0.526-0.528-1.379-0.528-1.904,0L72.569,46.135  c-0.525,0.523-0.525,1.378,0,1.902c0.262,0.264,0.61,0.394,0.951,0.394c0.349,0,0.689-0.129,0.951-0.394l20.135-20.132  C95.132,27.376,95.132,26.526,94.606,26.003z M27.594,53.544h5.273v5.278c0,1.359,1.1,2.459,2.459,2.459  c1.357,0,2.459-1.1,2.459-2.459v-5.278h5.278c1.357,0,2.459-1.099,2.459-2.457c0-1.359-1.102-2.459-2.459-2.459h-5.278v-5.273  c0-1.359-1.102-2.459-2.459-2.459c-1.359,0-2.459,1.1-2.459,2.459v5.273h-5.273c-1.359,0-2.459,1.1-2.459,2.459  C25.135,52.445,26.234,53.544,27.594,53.544z"/>
</svg>