<svg xmlns="http://www.w3.org/2000/svg" xmlns:xlink="http://www.w3.org/1999/xlink" version="1.1" x="0px" y="0px" width="100px" height="100px" viewBox="0 0 100 100" enable-background="new 0 0 100 100" xml:space="preserve">
<g id="Paint_1_">
</g>
<g id="Time">
</g>
<g id="Peg">
</g>
<g id="Peg_2">
</g>
<g id="Spray">
</g>
<g id="Service">
</g>
<g id="Green_Tea">
</g>
<g id="Dispenser">
</g>
<g id="Handheld_Vacuum">
</g>
<g id="Fan">
</g>
<g id="Glitter">
</g>
<g id="ID">
</g>
<g id="Security">
</g>
<g id="Security_2">
</g>
<g id="Work">
</g>
<g id="Calculator">
</g>
<g id="Workflow">
</g>
<g id="Crowd">
</g>
<g id="Apple">
</g>
<g id="Digital">
</g>
<g id="Umbrella">
</g>
<g id="Spade">
</g>
<g id="Cracked">
</g>
<g id="All_Weather">
</g>
<g id="Target">
</g>
<g id="Factory">
</g>
<g id="Plug">
</g>
<g id="Measurement">
</g>
<g id="Fist">
</g>
<g id="Gas_Mask">
</g>
<g id="Scary">
</g>
<g id="Smoke">
	<path d="M82.813,69.007v-0.05v-3.908v-3.065c0-4.186-3.077-5.671-5.971-5.671H63.429c-4.362,0-8.355-2.13-10.414-5.545   c-0.99-1.631-1.484-3.44-1.484-5.323c0-0.922,0.136-1.868,0.388-2.828c-7.551-1.284-13.067-6.888-13.067-13.819   c0-8.999,6.837-14.368,13.438-14.368h4.843c6.811,0,11.15,3.434,13.546,6.697c4.218,5.746,3.823,13.063,1.679,19.634   c2.055,0,4.133,0,4.133,0C86.35,40.761,95,49.281,95,58.998v6.051v3.908v0.05H82.813z M5,85.569h74.925V71.765H5V85.569z    M82.875,85.569h4.663V71.765h-4.663V85.569z M90.324,85.569h4.667V71.765h-4.667V85.569z"/>
</g>
</svg>