<svg xmlns="http://www.w3.org/2000/svg" xmlns:xlink="http://www.w3.org/1999/xlink" version="1.1" id="Layer_1" x="0px" y="0px" width="100px" height="100px" viewBox="0 0 50 50" enable-background="new 0 0 50 50" xml:space="preserve">
<g>
	<path fill-rule="evenodd" clip-rule="evenodd" fill="#000000" d="M30.453,45.424c-8.229,0-14.917-2.832-14.968-6.277   c0-1.932,1.948-3.59,5.039-4.766c0.2-0.074,3.346,0.979,3.346,0.979v1.885c0,0.77,0.668,1.441,1.489,1.441h10.136   c0.822,0,1.439-0.672,1.439-1.441v-3.857c4.989,1.027,8.385,3.188,8.385,5.66C45.373,42.543,38.684,45.424,30.453,45.424   L30.453,45.424z M24.538,8.797c8.849-3.24,17.335-4.01,22.686-2.52V3.191c-5.247-1.955-14.302-1.285-23.765,2.162   C10.032,10.238,1.289,19.908,2.986,24.59c1.543,4.219,3.754,5.094,9.412,4.836c0.31-0.412,0.825-0.668,1.235-0.514l11.063,3.502   c0.463,0.102,0.817,0.406,0.562,0.973L25,33.898c-0.206,0.516-0.82,0.879-1.339,0.723l-10.49-3.035   c-4.836,0.258-7.716,0.309-9.156-3.549C2.369,23.457,11.111,13.686,24.538,8.797L24.538,8.797z M30.4,24.744   c3.244,0,5.868,0.824,5.868,1.799c0,0.928-2.624,1.752-5.868,1.752c-3.188,0-5.811-0.824-5.811-1.752   C24.59,25.568,27.212,24.744,30.4,24.744L30.4,24.744z M30.453,47.893c8.23-0.051,14.92-2.883,14.92-6.381   c0-0.359,0.033-0.088-0.068-0.398c-1.13,2.984-7.455,5.457-14.862,5.457c-7.46,0-13.682-2.32-14.813-5.355   c-0.102,0.311-0.144,0.041-0.144,0.35C15.536,45.063,22.224,47.893,30.453,47.893L30.453,47.893z M25.952,33.268   c0.054,0.256-0.024,0.119-0.128,0.377l-0.256,0.514c-0.209,0.514-0.723,0.873-1.185,0.873v1.854c0,0.719,0.584,0.977,1.305,0.977   H35.1c0.72,0,1.371-0.258,1.371-0.977l0.027-3.926l0,0c-1.647,0.412-3.701,0.754-6.012,0.754   C28.89,33.713,27.29,33.523,25.952,33.268L25.952,33.268z M30.4,33.025c-1.645,0-3.188-0.152-4.525-0.41   c-0.102-0.156-0.209-0.459-0.417-0.51c0,0-4.055-1.238-4.15-1.328c-0.362-0.34-0.524-0.574-0.524-0.939   c0-0.383,0.213-0.77,0.605-1.125c4.521,2.91,14.461,2.516,18.057-0.016c0.407,0.357,0.629,0.748,0.629,1.141   C40.074,31.586,35.753,33.025,30.4,33.025L30.4,33.025z M30.4,29.99c-5.296,0-9.617-1.389-9.617-3.137   c0-1.801,4.321-3.189,9.617-3.189c5.353,0,9.674,1.389,9.674,3.189C40.074,28.602,35.753,29.99,30.4,29.99z"/>
</g>
</svg>