<svg xmlns="http://www.w3.org/2000/svg" xmlns:xlink="http://www.w3.org/1999/xlink" version="1.0" id="svg" x="0px" y="0px" width="100px" height="100px" viewBox="0 0 100 100" enable-background="new 0 0 100 100" xml:space="preserve">
<path fill="#000000" d="M85.044,17.456c-1.546-1.546-3.58-2.397-5.728-2.397c-2.383,0-4.688,1.045-6.666,3.022l-40,40  c-2.682,2.683-4.001,5.979-5.277,9.17c-1.237,3.091-2.405,6.013-4.723,8.33l-7.5,7.5c-1.812,1.812-1.686,3.832-0.625,4.894  c0.483,0.482,1.167,0.771,1.938,0.771c0.921,0,1.969-0.412,2.955-1.396l7.5-7.5c2.319-2.317,5.239-3.485,8.331-4.725  c3.189-1.275,6.488-2.596,9.169-5.275l40-40c1.979-1.978,3.021-4.282,3.021-6.665C87.441,21.036,86.59,19.002,85.044,17.456z   M83.475,27.137l-1.555-1.556c-0.488-0.488-1.279-0.488-1.768,0c-0.489,0.488-0.488,1.279,0,1.768l1.615,1.616l-3.231,3.232  l-1.616-1.616c-0.488-0.488-1.279-0.488-1.768,0c-0.489,0.488-0.488,1.279,0,1.768l1.615,1.616l-3.231,3.232l-1.616-1.616  c-0.488-0.488-1.279-0.488-1.768,0c-0.489,0.488-0.488,1.279,0,1.768l1.615,1.616l-3.231,3.232l-1.616-1.616  c-0.488-0.488-1.279-0.488-1.768,0c-0.489,0.488-0.488,1.279,0,1.768l1.615,1.616l-3.231,3.232l-1.616-1.616  c-0.488-0.488-1.279-0.488-1.768,0c-0.489,0.488-0.488,1.279,0,1.768l1.615,1.616l-3.231,3.232l-1.616-1.616  c-0.488-0.488-1.279-0.488-1.768,0c-0.489,0.487-0.488,1.278,0,1.769l1.615,1.615l-3.231,3.232l-1.616-1.616  c-0.488-0.488-1.279-0.488-1.768,0c-0.489,0.487-0.488,1.278,0,1.769l1.616,1.615l-3.23,3.232l-1.616-1.616  c-0.488-0.488-1.279-0.488-1.768,0c-0.489,0.487-0.488,1.278,0,1.769l1.616,1.615l-3.232,3.232l-1.616-1.616  c-0.488-0.488-1.279-0.488-1.768,0c-0.489,0.487-0.488,1.278,0,1.769l1.573,1.572c-2.149,1.778-4.71,2.805-7.404,3.883  c-3.189,1.275-6.488,2.596-9.169,5.276L24.42,77.35c2.682-2.683,4.001-5.979,5.277-9.17c1.237-3.092,2.405-6.013,4.723-8.33l40-40  c3.26-3.258,6.875-2.606,8.857-0.625c1.074,1.074,1.664,2.48,1.664,3.96C84.941,24.54,84.434,25.888,83.475,27.137z M57.652,40.581  l-22.5,22.5c-0.488,0.487-0.488,1.278,0,1.769c0.244,0.243,0.564,0.365,0.884,0.365c0.32,0,0.64-0.122,0.884-0.365l22.5-22.5  c0.488-0.488,0.488-1.279,0-1.768C58.932,40.092,58.141,40.093,57.652,40.581z"/>
</svg>