<svg xmlns="http://www.w3.org/2000/svg" xmlns:xlink="http://www.w3.org/1999/xlink" version="1.1" x="0px" y="0px" width="100px" height="100px" viewBox="0 0 100 100" enable-background="new 0 0 100 100" xml:space="preserve">
<g id="Captions">
	<rect x="-192" width="185" height="99"/>
	<rect y="-36" width="100" height="30"/>
	<text transform="matrix(1 0 0 1 66 -19.5)" fill="#000000" font-family="'Helvetica'" font-size="2.4">http://thenounproject.com</text>
	<text transform="matrix(1 0 0 1 7.166 -24.5)"><tspan x="0" y="0" fill="#000000" font-family="'Helvetica-Bold'" font-size="6.1578">The Noun Project</tspan><tspan x="1.12" y="4.8" fill="#000000" font-family="'Helvetica-Bold'" font-size="4">Icon Template</tspan></text>
	<text transform="matrix(1 0 0 1 -178.5 10.5)" fill="#000000" font-family="'Helvetica-Bold'" font-size="6.1578">Reminders</text>
	<line fill="#000000" stroke="#FFFFFF" stroke-miterlimit="10" x1="8" y1="-14.5" x2="18" y2="-14.5"/>
	<line fill="#000000" stroke="#FFFFFF" stroke-miterlimit="10" x1="-179" y1="16.5" x2="-162" y2="16.5"/>
	<g>
		<g>
			<g>
				<rect x="-170.802" y="31.318" fill="#000000" width="8.721" height="8.642"/>
				<path fill="#000000" d="M-164.455,42.312h4.747v-4.703h-4.747V42.312z M-159.266,42.749h-5.63V37.17h5.63V42.749      L-159.266,42.749z M-166.221,44.062h8.279v-8.203h-8.279V44.062L-166.221,44.062z M-157.5,44.5h-9.163v-9.079h9.163V44.5      L-157.5,44.5z"/>
				<polygon fill="#000000" points="-166.149,44.133 -166.292,43.991 -158.013,35.787 -157.871,35.929     "/>
			</g>
		</g>
	</g>
	<rect x="-179" y="58" fill="none" width="35" height="32.5"/>
	<text transform="matrix(1 0 0 1 -179 60.1572)"><tspan x="0" y="0" fill="#000000" font-family="'Helvetica-Bold'" font-size="3">Strokes</tspan><tspan x="0" y="5" fill="#000000" font-family="'Helvetica'" font-size="2.4">Try to keep strokes at 4px</tspan><tspan x="0" y="10" fill="#000000" font-family="'Helvetica'" font-size="2.4">Minimum stroke weight is 2px</tspan><tspan x="0" y="14.5" fill="#000000" font-family="'Helvetica'" font-size="2.4">For thicker strokes use even </tspan><tspan x="0" y="17.5" fill="#000000" font-family="'Helvetica'" font-size="2.4">numbers: 6px, 8px etc.</tspan><tspan x="0" y="22" fill="#000000" font-family="'Helvetica-Bold'" font-size="2.4">Remember to expand strokes </tspan><tspan x="0" y="25" fill="#000000" font-family="'Helvetica-Bold'" font-size="2.4">before saving as an SVG </tspan></text>
	<rect x="-136.5" y="58" fill="none" width="35" height="32.5"/>
	<text transform="matrix(1 0 0 1 -136.5 60.1572)"><tspan x="0" y="0" fill="#000000" font-family="'Helvetica-Bold'" font-size="3">Size</tspan><tspan x="0" y="5" fill="#000000" font-family="'Helvetica'" font-size="2.4">Cannot be wider or taller than </tspan><tspan x="0" y="8.5" fill="#000000" font-family="'Helvetica'" font-size="2.4">100px (artboard size)</tspan><tspan x="0" y="13.5" fill="#000000" font-family="'Helvetica'" font-size="2.4">Scale your icon to fill as much of </tspan><tspan x="0" y="16.5" fill="#000000" font-family="'Helvetica'" font-size="2.4">the artboard as possible</tspan></text>
	<rect x="-94" y="58" fill="none" width="35" height="32.5"/>
	<text transform="matrix(1 0 0 1 -94 60.1572)"><tspan x="0" y="0" fill="#000000" font-family="'Helvetica-Bold'" font-size="3">Ungroup</tspan><tspan x="0" y="5" fill="#000000" font-family="'Helvetica'" font-size="2.4">If your design has more than one </tspan><tspan x="0" y="8" fill="#000000" font-family="'Helvetica'" font-size="2.4">shape, make sure to ungroup</tspan></text>
	<rect x="-50" y="58" fill="none" width="35" height="32.5"/>
	<text transform="matrix(1 0 0 1 -50 60.1572)"><tspan x="0" y="0" fill="#000000" font-family="'Helvetica-Bold'" font-size="3">Save as</tspan><tspan x="0" y="5" fill="#000000" font-family="'Helvetica'" font-size="2.4">Save as .SVG and make sure </tspan><tspan x="0" y="8" fill="#000000" font-family="'Helvetica'" font-size="2.4">&#8220;Use Artboards&#8221; is checked</tspan></text>
	<text transform="matrix(1.0074 0 0 1 -125.542 30.5933)" fill="#000000" font-family="'Helvetica'" font-size="2.5731">100px</text>
	<text transform="matrix(1.0074 0 0 1 -41 39)" fill="#000000" font-family="'Helvetica-Bold'" font-size="5.1462">.SVG</text>
	<rect x="-126.514" y="34.815" fill="#000000" width="10.261" height="10.185"/>
	<rect x="-126.477" y="31.766" fill="#000000" width="0.522" height="2.337"/>
	<rect x="-116.812" y="31.766" fill="#000000" width="0.523" height="2.337"/>
	<rect x="-127" y="32.337" fill="#000000" width="11.233" height="0.572"/>
	<g>
		<rect x="-83.805" y="33.844" fill="#000000" width="10.305" height="10.156"/>
		<rect x="-76.809" y="28.707" fill="#000000" width="3.308" height="3.261"/>
	</g>
	<rect x="-178.5" y="22.5" fill="#000000" stroke="#FFFFFF" stroke-miterlimit="10" width="30" height="30"/>
	<rect x="-136.5" y="22.5" fill="#000000" stroke="#FFFFFF" stroke-miterlimit="10" width="30" height="30"/>
	<rect x="-93.5" y="22.5" fill="#000000" stroke="#FFFFFF" stroke-miterlimit="10" width="30" height="30"/>
	<rect x="-49.5" y="22.5" fill="#000000" stroke="#FFFFFF" stroke-miterlimit="10" width="30" height="30"/>
</g>
<g id="Your_Icon">
	<path fill="#000000" d="M11.497,94.026c0,1.091-0.884,1.975-1.974,1.975c-1.092,0.001-1.975-0.883-1.976-1.975   c0.001-1.089,1.976-3.997,1.976-3.997S11.497,92.938,11.497,94.026z"/>
	<g>
		<path fill="#000000" d="M88.019,36.717l-0.136-0.136c-0.025-0.025,0.133,0.139,0.133,0.139L88.019,36.717z"/>
		<path fill="#000000" d="M89.606,39.624c-0.366-1.22-0.818-2.13-1.724-3.043L75.33,23.975l6.136-6.185    c0.36,0.152,1.089,0.518,1.862,0.75c2.772,0.83,5.763,0.068,7.801-1.986c1.467-1.483,2.274-3.45,2.263-5.538    c-0.005-2.088-0.828-4.049-2.31-5.519c-0.913-0.904-2.039-1.575-3.262-1.939c-2.772-0.831-5.761-0.069-7.798,1.985    c-1.471,1.483-2.366,3.36-2.356,5.449c0.005,1.613,0.646,3.292,1.159,4.192l-6.151,6.151L60.635,9.332l-0.002,0.002    c0,0-0.126-0.131-0.153-0.156c-0.911-0.904-2.077-1.612-3.3-1.979C54.407,6.37,51.4,7.111,49.364,9.165    c-1.471,1.483-2.288,3.441-2.275,5.531c0.008,2.087,0.825,4.043,2.306,5.512c0.912,0.906,2.346,1.267,3.566,1.632    c2.069,0.618,4.572,0.029,6.386-0.986l0.218,0.218L24.627,56.245c-1.416,1.428-1.332,3.31-1.494,4.816l-0.493,6.525l2.598,2.598    L10.113,85.31c-0.52,0.519-0.646,1.001-0.156,1.495c0.493,0.503,1,0.455,1.541-0.074l15.113-15.173l2.53,2.531l6.703-0.067    c2.216-0.046,3.569-0.298,4.986-1.729l34.862-35.091l0.224,0.224c-1.016,1.813-1.603,4.32-0.983,6.389    c0.366,1.221,0.883,2.501,1.787,3.413c1.47,1.481,3.354,2.38,5.442,2.39c2.087,0.008,4.017-0.762,5.501-2.23    C89.716,45.349,90.437,42.397,89.606,39.624z M53.545,19.156c-0.732-0.219-1.409-0.621-1.958-1.165    c-0.893-0.885-1.386-2.063-1.392-3.319s0.48-2.439,1.363-3.33c1.227-1.235,3.022-1.692,4.69-1.193    c0.735,0.218,1.412,0.624,1.959,1.166c0.894,0.886,1.386,2.062,1.394,3.32c0.004,1.255-0.482,2.437-1.366,3.329    C57.012,19.2,55.215,19.656,53.545,19.156z M80.871,11.066c-0.004-1.256,0.481-2.439,1.365-3.33    c1.227-1.235,3.022-1.691,4.69-1.193c0.733,0.22,1.411,0.622,1.958,1.166c0.892,0.885,1.385,2.064,1.391,3.319    c0.007,1.256-0.479,2.439-1.362,3.332c-1.224,1.234-3.021,1.692-4.689,1.192c-0.736-0.22-1.413-0.623-1.961-1.165    C81.371,13.5,80.877,12.322,80.871,11.066z M30.893,70.223l-4.392-4.429l0.407-6.678l31.954-32.22l11.021,10.931l-3.956,3.988    l-5.62-5.554c-0.545-0.542-1.201-0.555-1.715-0.037c-0.518,0.523-0.497,1.146,0.062,1.702l5.619,5.556l-1.839,1.854l-2.535-2.506    c-0.547-0.541-1.196-0.554-1.715-0.036c-0.519,0.522-0.494,1.143,0.064,1.7l2.535,2.505l-1.843,1.857l-2.539-2.505    c-0.542-0.542-1.2-0.554-1.712-0.037c-0.52,0.526-0.501,1.145,0.062,1.701l2.534,2.511l-1.838,1.853l-5.625-5.56    c-0.544-0.542-1.201-0.556-1.715-0.037c-0.52,0.521-0.496,1.144,0.062,1.699l5.627,5.562l-1.841,1.856l-2.54-2.517    c-0.545-0.536-1.201-0.552-1.716-0.032c-0.517,0.525-0.496,1.146,0.066,1.7l2.54,2.511l-1.844,1.858l-2.539-2.514    c-0.547-0.54-1.205-0.554-1.719-0.037c-0.519,0.522-0.499,1.146,0.065,1.702l2.543,2.512l-1.843,1.857l-5.632-5.567    c-0.543-0.539-1.198-0.558-1.714-0.038c-0.52,0.525-0.498,1.146,0.064,1.699l5.633,5.568l-5.396,5.439L30.893,70.223z     M82.1,46.578c-1.256-0.007-2.434-0.5-3.32-1.392c-0.542-0.549-0.944-1.225-1.165-1.959c-0.498-1.669-0.042-3.466,1.194-4.691    c0.892-0.885,2.074-1.368,3.328-1.363c1.257,0.004,2.436,0.498,3.321,1.391c0.544,0.547,0.945,1.226,1.164,1.958    c0.5,1.669,0.042,3.466-1.191,4.691C84.538,46.096,83.355,46.581,82.1,46.578z"/>
	</g>
</g>
</svg>